<svg width="24" height="24" viewBox="0 0 24 24" fill="none" xmlns="http://www.w3.org/2000/svg">
<g id="WTRX">
<rect id="Rectangle Copy 3" width="24" height="24" rx="5" fill="#C1C1C1"/>
<path id="Vector" d="M7.00012 6H10.3329C10.8854 6 11.333 6.44758 11.333 7.00012V10.3329C11.333 10.8854 10.8854 11.333 10.3329 11.333H7.00012C6.44612 11.333 6 10.884 6 10.3329V7.00012C6 6.44612 6.44758 6 7.00012 6ZM13.6671 6H16.9999C17.5539 6 18 6.44758 18 7.00012V10.3329C18 10.8854 17.5524 11.333 16.9999 11.333H13.6671C13.1146 11.333 12.667 10.8854 12.667 10.3329V7.00012C12.667 6.44612 13.1146 6 13.6671 6ZM7.00012 12.6655H10.3329C10.8854 12.6655 11.333 13.1131 11.333 13.6657V16.9984C11.333 17.551 10.8854 17.9985 10.3329 17.9985H7.00012C6.44612 17.9985 6 17.551 6 16.9984V13.6671C6 13.1146 6.44758 12.6655 7.00012 12.6655ZM16.9999 13.3332C17.185 13.3332 17.3323 13.4834 17.3323 13.6657V16.9984C17.3323 17.1836 17.1821 17.3308 16.9999 17.3308H13.6671C13.482 17.3308 13.3347 17.1807 13.3347 16.9984V13.6671C13.3347 13.482 13.4849 13.3347 13.6671 13.3347H16.9999V13.3332ZM16.9999 12.6655H13.6671C13.1146 12.6655 12.667 13.1131 12.667 13.6657V16.9984C12.667 17.551 13.1146 17.9985 13.6671 17.9985H16.9999C17.5524 17.9985 18 17.551 18 16.9984V13.6671C18.0015 13.1146 17.5539 12.6655 16.9999 12.6655Z" fill="white"/>
</g>
</svg>
